<svg width="337" height="283" viewBox="0 0 337 283" fill="none" xmlns="http://www.w3.org/2000/svg">
<path d="M14.0001 90.0721H34.125L35 198.245H14.0001C9.80011 198.245 8.75012 195.241 8.75012 193.738V171.202C2.45015 171.923 0.291824 168.498 0.000156403 166.695V121.623C0.000156403 118.017 1.75015 116.515 2.62514 116.214H8.75012V94.5794C8.75012 90.2524 12.2501 89.7717 14.0001 90.0721Z" fill="#90A4AE"/>
<path d="M7.62939e-05 160.481H34.6675V198.456H13.0004C10.227 198.456 8.95582 195.442 8.66693 193.936V171.331C2.4268 172.054 0.288971 168.618 7.62939e-05 166.81V160.481Z" fill="#81939C"/>
<path d="M323 89.0721H302.875L302 197.245H323C327.2 197.245 328.25 194.241 328.25 192.738V170.202C334.55 170.923 336.708 167.498 337 165.695V120.623C337 117.017 335.25 115.515 334.375 115.214H328.25V93.5794C328.25 89.2524 324.75 88.7717 323 89.0721Z" fill="#90A4AE"/>
<path d="M337 159.481H302.333V197.456H324C326.773 197.456 328.044 194.442 328.333 192.936V170.331C334.573 171.054 336.711 167.618 337 165.81V159.481Z" fill="#81939C"/>
<path d="M167.087 0C136.798 0 131.63 27.6443 132.832 41.4664H204.947C204.947 31.5505 204.947 0 167.087 0Z" fill="#BDC9CF"/>
<rect x="113" y="36.4661" width="109.976" height="14.4231" rx="5" fill="#90A4AE"/>
<path d="M188.214 15.9956C184.799 13.719 178.914 10.5439 171.71 8.50736C169.975 8.01685 169.851 5.7962 171.649 5.65628C178.938 5.08887 186.092 9.07075 193.322 15.9091C194.301 16.8349 193.822 18.2018 192.506 17.9141C191.347 17.6607 189.889 17.1119 188.214 15.9956Z" fill="#F3F5F6"/>
<path d="M194.782 13.9468C194.903 13.124 194.041 12.1168 193.021 11.2555C192.047 10.4324 191.062 11.115 191.795 12.1587C192.909 13.7437 194.613 15.0998 194.782 13.9468Z" fill="#F3F5F6"/>
<path d="M314 87C314 63.8041 295.196 45 272 45H64C40.804 45 22 63.804 22 87V209.646C22 232.842 40.8046 251.646 64.0006 251.646C66.1132 251.646 68.2102 251.646 70.2923 251.646C76.9872 251.646 77.9135 282.531 84.3308 282.531C91.0057 282.531 103.161 251.646 109.6 251.646C164.413 251.646 211.839 251.646 271.991 251.646C295.187 251.646 314 232.842 314 209.646V87Z" fill="#FFAE37"/>
<path d="M262.625 114.4C256.668 113.394 249.92 112.188 245.213 108.286C239.423 103.54 238.881 94.5304 239.131 87.733C239.298 83.4292 232.55 83.0672 232.216 87.3307C232.133 88.2558 232.091 89.181 232.008 90.1463C231.717 90.5887 231.466 102.253 225.676 107.442C221.261 111.383 214.513 111.866 208.848 112.349C204.849 112.711 205.64 118.623 209.348 118.945C215.846 119.468 224.01 119.951 228.218 125.501C230.217 128.116 230.509 131.494 230.717 134.632C231.008 138.453 231.217 142.274 231.467 146.135C231.716 150.318 238.465 150.881 238.381 146.537C238.298 142.837 238.423 139.136 238.798 135.476C239.089 132.5 239.006 128.236 241.797 126.306C244.297 124.576 247.837 123.691 250.753 122.927C254.46 121.962 258.292 121.318 262.125 121.077C266.665 120.755 267.04 115.124 262.625 114.4Z" fill="white"/>
<path d="M203 187C207.419 187 211.089 190.623 210.158 194.942C206.514 211.838 191.486 224.5 173.5 224.5C155.515 224.5 140.486 211.838 136.843 194.942C135.912 190.623 139.582 187 144 187H203Z" fill="#BEFF07"/>
<path d="M69.1721 121.535C69.1721 139.001 83.8484 153.167 101.936 153.167C120.01 153.167 134.672 139.001 134.672 121.535C134.672 104.069 120.01 89.922 101.936 89.922C83.8484 89.922 69.1721 104.069 69.1721 121.535Z" fill="white"/>
</svg>
